<?xml version="1.0" encoding="UTF-8" standalone="no"?>
<!-- Created with Inkscape (http://www.inkscape.org/) -->

<svg
   xmlns:dc="http://purl.org/dc/elements/1.1/"
   xmlns:cc="http://creativecommons.org/ns#"
   xmlns:rdf="http://www.w3.org/1999/02/22-rdf-syntax-ns#"
   xmlns:svg="http://www.w3.org/2000/svg"
   xmlns="http://www.w3.org/2000/svg"
   xmlns:sodipodi="http://sodipodi.sourceforge.net/DTD/sodipodi-0.dtd"
   xmlns:inkscape="http://www.inkscape.org/namespaces/inkscape"
   width="210mm"
   height="297mm"
   viewBox="0 0 210 297"
   version="1.1"
   id="svg8"
   inkscape:version="0.92.3 (2405546, 2018-03-11)"
   sodipodi:docname="konkolasikaire.svg">
  <defs
     id="defs2" />
  <sodipodi:namedview
     id="base"
     pagecolor="#ffffff"
     bordercolor="#666666"
     borderopacity="1.0"
     inkscape:pageopacity="0.0"
     inkscape:pageshadow="2"
     inkscape:zoom="0.35"
     inkscape:cx="-77.142857"
     inkscape:cy="560"
     inkscape:document-units="mm"
     inkscape:current-layer="layer1"
     showgrid="false"
     inkscape:window-width="1920"
     inkscape:window-height="1001"
     inkscape:window-x="-9"
     inkscape:window-y="-9"
     inkscape:window-maximized="1" />
  <metadata
     id="metadata5">
    <rdf:RDF>
      <cc:Work
         rdf:about="">
        <dc:format>image/svg+xml</dc:format>
        <dc:type
           rdf:resource="http://purl.org/dc/dcmitype/StillImage" />
        <dc:title></dc:title>
      </cc:Work>
    </rdf:RDF>
  </metadata>
  <g
     inkscape:label="Layer 1"
     inkscape:groupmode="layer"
     id="layer1">
    <g
       id="g4597"
       transform="matrix(0.26458333,0,0,0.26458333,22.980953,72.028572)"
       style="fill:#0000ff">
      <g
         id="g4528"
         style="fill:#0000ff">
	
</g>
      <g
         id="g4536"
         style="fill:#0000ff">
</g>
      <g
         id="g4538"
         style="fill:#0000ff">
</g>
      <g
         id="g4540"
         style="fill:#0000ff">
</g>
      <g
         id="g4542"
         style="fill:#0000ff">
</g>
      <g
         id="g4544"
         style="fill:#0000ff">
</g>
      <g
         id="g4546"
         style="fill:#0000ff">
</g>
      <g
         id="g4548"
         style="fill:#0000ff">
</g>
      <g
         id="g4550"
         style="fill:#0000ff">
</g>
      <g
         id="g4552"
         style="fill:#0000ff">
</g>
      <g
         id="g4554"
         style="fill:#0000ff">
</g>
      <g
         id="g4556"
         style="fill:#0000ff">
</g>
      <g
         id="g4558"
         style="fill:#0000ff">
</g>
      <g
         id="g4560"
         style="fill:#0000ff">
</g>
      <g
         id="g4562"
         style="fill:#0000ff">
</g>
      <g
         id="g4564"
         style="fill:#0000ff">
</g>
    </g>
    <g
       id="g4706"
       transform="matrix(-0.26458333,0,0,0.26458333,174.32261,83.367993)">
      <g
         id="g4635">
	<g
   id="g4633">
		<g
   id="g4631">
			<path
   id="path4603"
   d="m 345.863,281.853 c 19.152,-8.872 38.221,-15.344 56.953,-19.308 5.403,-1.143 8.856,-6.45 7.713,-11.853 -1.143,-5.403 -6.444,-8.857 -11.854,-7.713 -21.683,4.588 -43.704,12.261 -65.728,22.865 -12.303,-14.673 -26.387,-30.015 -41.582,-45.21 -16.147,-16.146 -32.462,-31.048 -47.961,-43.878 13.412,-16.959 24.359,-35.947 32.641,-56.728 12.913,-32.401 19.461,-69.419 19.461,-110.029 0,-5.523 -4.478,-10 -10,-10 -5.522,0 -10,4.477 -10,10 0,62.572 -16.044,114.358 -47.728,154.32 -5.979,-4.561 -11.776,-8.753 -17.312,-12.486 -29.637,-19.989 -47.289,-24.674 -57.155,-15.162 -0.07,0.065 -0.143,0.129 -0.211,0.196 -0.01,0.01 -0.02,0.019 -0.03,0.028 -0.006,0.006 -0.011,0.013 -0.017,0.018 -2.527,2.533 -4.087,5.596 -4.678,9.251 L 0.778,498.133 c -1.57,3.744 -0.72,8.067 2.151,10.938 1.914,1.913 4.472,2.929 7.074,2.929 1.302,0 2.616,-0.254 3.865,-0.778 0.028,-0.012 0,0 0.028,-0.012 L 365.837,363.622 c 3.337,-0.54 6.172,-1.904 8.569,-4.061 0.174,-0.145 0.337,-0.299 0.5,-0.453 0.064,-0.063 0.133,-0.115 0.196,-0.179 0.01,-0.01 0.018,-0.021 0.027,-0.03 0.069,-0.068 0.133,-0.142 0.199,-0.213 9.511,-9.867 4.826,-27.518 -15.163,-57.153 -4.225,-6.264 -9.026,-12.858 -14.302,-19.68 z M 79.315,440.759 c -2.087,13.013 -6.728,21.567 -8.961,25.087 L 28.675,483.324 71.004,382.386 c 8.282,20.761 11.153,40.649 8.311,58.373 z m 61.536,-33.836 c -4.032,22.984 -14.726,34.063 -17.767,36.811 l -26.351,11.05 c 5.858,-20.854 7.398,-53.957 -15.241,-97.409 l 29.968,-71.459 c 31.093,58.95 33.426,98.01 29.391,121.007 z m 35.671,14.4 -21.554,9.04 c 2.054,-5.189 3.865,-11.099 5.177,-17.796 8.004,-40.853 -5.062,-91.365 -38.815,-150.187 l 10.82,-25.801 c 8.564,10.305 18.322,24.89 22.274,34.086 1.627,3.787 5.316,6.055 9.192,6.055 1.317,0 2.657,-0.263 3.944,-0.815 5.074,-2.181 7.419,-8.061 5.239,-13.136 -5.864,-13.644 -20.733,-34.874 -32.107,-46.559 l 16.533,-39.425 c 2.896,5.31 6.483,11.128 10.785,17.506 2.962,4.392 6.207,8.945 9.697,13.625 34.207,51.906 33.433,105.035 26.746,140.484 -7.111,37.705 -22.338,65.31 -27.931,72.923 z m 77.053,-32.311 -47.474,19.908 c 6.855,-15.036 13.848,-34.775 18.004,-56.812 4.642,-24.614 6.683,-56.982 -1.906,-91.935 4.737,5.004 9.61,10.019 14.609,15.018 14.958,14.957 30.056,28.836 44.52,41 -1.434,47.213 -23.089,68.727 -27.753,72.821 z m 34.47,-14.455 c 5.353,-11.075 10.08,-25.348 12.188,-43.175 6.036,4.608 11.889,8.842 17.475,12.609 6.381,4.304 12.198,7.889 17.51,10.785 z m 35.172,-51.072 c -21.74,-15.403 -47.405,-37.577 -72.266,-62.438 -24.86,-24.86 -47.035,-50.525 -62.437,-72.265 -14.895,-21.023 -18.909,-31.758 -19.966,-36.408 4.65,1.058 15.385,5.072 36.408,19.966 3.118,2.209 6.322,4.57 9.586,7.045 -0.701,0.722 -1.393,1.451 -2.106,2.164 -3.905,3.905 -3.905,10.237 0,14.143 1.953,1.952 4.512,2.929 7.071,2.929 2.559,0 5.119,-0.977 7.071,-2.929 1.256,-1.256 2.493,-2.529 3.716,-3.814 15.169,12.539 31.208,27.179 46.929,42.9 13.519,13.519 26.23,27.271 37.504,40.504 -1.806,1.003 -3.611,2.023 -5.416,3.065 -4.783,2.762 -6.422,8.878 -3.66,13.66 1.852,3.208 5.213,5.002 8.67,5.002 1.696,0 3.416,-0.433 4.99,-1.342 2.776,-1.604 5.554,-3.143 8.331,-4.646 4.345,5.518 8.377,10.883 12.018,16.023 14.896,21.023 18.909,31.758 19.966,36.408 -4.652,-1.059 -15.387,-5.073 -36.409,-19.967 z"
   inkscape:connector-curvature="0" />

			<path
   id="path4605"
   d="m 180.884,288.533 c -2.267,-5.037 -8.186,-7.283 -13.223,-5.016 -4.88,2.196 -7.14,7.822 -5.214,12.751 1.514,3.963 5.299,6.43 9.34,6.43 1.096,0 2.21,-0.182 3.304,-0.564 5.212,-1.824 7.96,-7.529 6.135,-12.742 -0.095,-0.271 -0.224,-0.597 -0.342,-0.859 z"
   inkscape:connector-curvature="0" />

			<path
   id="path4607"
   d="m 373.433,154.691 c 1.953,1.952 4.512,2.929 7.071,2.929 2.56,0 5.118,-0.977 7.071,-2.929 22.343,-22.343 58.542,-32.583 84.971,-34.716 5.505,-0.444 9.607,-5.268 9.163,-10.772 -0.445,-5.505 -5.258,-9.591 -10.772,-9.163 -29.973,2.419 -71.326,14.331 -97.504,40.509 -3.905,3.905 -3.905,10.237 0,14.142 z"
   inkscape:connector-curvature="0" />

			<path
   id="path4609"
   d="m 504.589,101.963 c -0.283,-0.076 -0.571,-0.151 -0.862,-0.224 -5.359,-1.336 -10.785,1.929 -12.12,7.288 -1.334,5.359 1.929,10.786 7.288,12.12 l 0.511,0.132 c 0.868,0.233 1.74,0.345 2.598,0.345 4.414,0 8.454,-2.945 9.652,-7.411 1.431,-5.334 -1.732,-10.818 -7.067,-12.25 z"
   inkscape:connector-curvature="0" />

			<path
   id="path4611"
   d="m 73.504,83.621 h 10 v 10 c 0,5.522 4.477,10 10,10 5.523,0 10,-4.478 10,-10 v -10 h 10 c 5.523,0 10,-4.478 10,-10 0,-5.522 -4.477,-10 -10,-10 h -10 v -10 c 0,-5.522 -4.477,-10 -10,-10 -5.523,0 -10,4.478 -10,10 v 10 h -10 c -5.523,0 -10,4.478 -10,10 0,5.523 4.477,10 10,10 z"
   inkscape:connector-curvature="0" />

			<path
   id="path4613"
   d="m 307.502,180.62 h 10.001 v 9.999 c 0,5.523 4.478,10 10,10 5.523,0 10,-4.477 10,-10 v -9.999 h 9.999 c 5.522,0 10,-4.478 10,-10 0,-5.522 -4.478,-10 -10,-10 h -9.999 v -10.001 c 0,-5.522 -4.477,-10 -10,-10 -5.522,0 -10,4.478 -10,10 v 10.001 h -10.001 c -5.522,0 -10,4.478 -10,10 0,5.523 4.478,10 10,10 z"
   inkscape:connector-curvature="0" />

			<path
   id="path4615"
   d="m 446.501,417.618 h -10 v -10 c 0,-5.522 -4.478,-10 -10,-10 -5.522,0 -10,4.478 -10,10 v 10 h -10 c -5.522,0 -10,4.478 -10,10 0,5.522 4.478,10 10,10 h 10 v 10 c 0,5.522 4.478,10 10,10 5.522,0 10,-4.478 10,-10 v -10 h 10 c 5.522,0 10,-4.478 10,-10 0,-5.522 -4.477,-10 -10,-10 z"
   inkscape:connector-curvature="0" />

			<path
   id="path4617"
   d="m 389.969,60.001 c 16.542,0 30,-13.458 30,-30 0,-16.542 -13.458,-30 -30,-30 -16.542,0 -30,13.458 -30,30 0,16.542 13.458,30 30,30 z m 0,-40 c 5.514,0 10,4.486 10,10 0,5.514 -4.486,10 -10,10 -5.514,0 -10,-4.486 -10,-10 0,-5.514 4.486,-10 10,-10 z"
   inkscape:connector-curvature="0" />

			<path
   id="path4619"
   d="m 452.501,173.619 c -16.542,0 -30,13.458 -30,30 0,16.542 13.458,30 30,30 16.542,0 30,-13.458 30,-30 0,-16.542 -13.459,-30 -30,-30 z m 0,40 c -5.514,0 -10,-4.486 -10,-10 0,-5.514 4.486,-10 10,-10 5.514,0 10,4.486 10,10 0,5.514 -4.486,10 -10,10 z"
   inkscape:connector-curvature="0" />

			<path
   id="path4621"
   d="m 198.503,95.62 c 16.542,0 30,-13.458 30,-30 0,-16.542 -13.458,-30 -30,-30 -16.542,0 -30,13.458 -30,30 0,16.542 13.458,30 30,30 z m 0,-40 c 5.514,0 10,4.486 10,10 0,5.514 -4.486,10 -10,10 -5.514,0 -10,-4.486 -10,-10 0,-5.513 4.486,-10 10,-10 z"
   inkscape:connector-curvature="0" />

			<path
   id="path4623"
   d="m 449.19,294.058 c 0,-5.508 -4.492,-10 -10,-10 -5.508,0 -10,4.492 -10,10 0,5.508 4.492,10 10,10 5.508,0 10,-4.493 10,-10 z"
   inkscape:connector-curvature="0" />

			<path
   id="path4625"
   d="m 335.189,95.06 c 5.508,0 10,-4.492 10,-10 0,-5.508 -4.492,-10 -10,-10 -5.508,0 -10,4.492 -10,10 10e-4,5.507 4.493,10 10,10 z"
   inkscape:connector-curvature="0" />

			<path
   id="path4627"
   d="m 469.189,359.057 c -5.508,0 -10.001,4.493 -10.001,10.001 0,5.508 4.493,10 10.001,10 5.507,0 10,-4.492 10,-10 0,-5.508 -4.493,-10.001 -10,-10.001 z"
   inkscape:connector-curvature="0" />

			<path
   id="path4629"
   d="m 139.192,30.001 c 5.508,0 10,-4.492 10,-10 0,-5.508 -4.492,-10 -10,-10 -5.508,0 -10,4.492 -10,10 0,5.508 4.492,10 10,10 z"
   inkscape:connector-curvature="0" />

		</g>

	</g>

</g>
      <g
         id="g4637">
</g>
      <g
         id="g4639">
</g>
      <g
         id="g4641">
</g>
      <g
         id="g4643">
</g>
      <g
         id="g4645">
</g>
      <g
         id="g4647">
</g>
      <g
         id="g4649">
</g>
      <g
         id="g4651">
</g>
      <g
         id="g4653">
</g>
      <g
         id="g4655">
</g>
      <g
         id="g4657">
</g>
      <g
         id="g4659">
</g>
      <g
         id="g4661">
</g>
      <g
         id="g4663">
</g>
      <g
         id="g4665">
</g>
    </g>
  </g>
</svg>
