<?xml version="1.0"?>
<svg xmlns="http://www.w3.org/2000/svg" height="512px" viewBox="0 -38 512 511" width="512px"><path d="m348.894531 260.28125v-224c0-10.601562-4.65625-20.59375-12.777343-27.40625-8.121094-6.816406-18.769532-9.667969-29.210938-7.828125l-134.828125 23.773437c-4.078125.71875-6.800781 4.609376-6.082031 8.6875.71875 4.078126 4.609375 6.804688 8.6875 6.085938l134.828125-23.773438c6.0625-1.070312 12.246093.585938 16.964843 4.542969 4.714844 3.957031 7.417969 9.757813 7.417969 15.914063v34.445312l-231.597656 40.835938v-30.875c0-16.414063 11.730469-30.394532 27.894531-33.246094l9.367188-1.652344c4.082031-.71875 6.804687-4.609375 6.085937-8.6875s-4.605469-6.800781-8.6875-6.082031l-9.367187 1.648437c-23.347656 4.117188-40.292969 24.3125-40.292969 48.019532v168.257812c-4.652344.136719-9.386719.628906-14.148437 1.464844-19.269532 3.398438-37.421876 12.179688-51.105469 24.722656-14.214844 13.027344-22.042969 28.664063-22.042969 44.027344 0 12.671875 5.503906 24.265625 15.492188 32.648438 10.9375 9.179687 26.160156 14.019531 43.238281 14.019531 5.507812 0 11.210937-.503907 17.023437-1.527344 19.273438-3.398437 37.421875-12.179687 51.105469-24.722656 14.214844-13.027344 22.042969-28.664063 22.042969-44.027344v-176.976563l138.382812-24.398437v119.507813c-4.652344.136718-9.382812.625-14.144531 1.464843-19.273437 3.398438-37.421875 12.175781-51.105469 24.71875-14.214844 13.027344-22.042968 28.664063-22.042968 44.03125 0 12.667969 5.5 24.265625 15.492187 32.644531 10.9375 9.179688 26.160156 14.019532 43.234375 14.019532 5.511719 0 11.214844-.503906 17.027344-1.527344 19.273437-3.398438 37.421875-12.175781 51.105468-24.71875 14.214844-13.027344 22.042969-28.664062 22.042969-44.03125zm-214.992187 35.265625c0 23.453125-27.820313 48.171875-60.753906 53.976563-19.164063 3.378906-37.117188-.0625-48.015626-9.207032-6.628906-5.566406-10.132812-12.878906-10.132812-21.160156 0-23.449219 27.820312-48.167969 60.753906-53.976562 6.351563-1.117188 12.605469-1.507813 18.59375-1.148438 2.074219.125 4.085938-.613281 5.589844-2.027344 1.503906-1.417968 2.359375-3.394531 2.359375-5.460937v-129.753907l31.605469-5.570312zm139.238281 18.710937c-19.167969 3.382813-37.113281-.0625-48.015625-9.207031-6.628906-5.5625-10.132812-12.878906-10.132812-21.15625 0-23.453125 27.820312-48.171875 60.753906-53.980469 6.347656-1.117187 12.605468-1.503906 18.597656-1.148437 2.058594.125 4.082031-.609375 5.585938-2.027344 1.503906-1.417969 2.355468-3.390625 2.355468-5.457031v-129.753906l31.609375-5.574219v174.332031c0 23.449219-27.820312 48.167969-60.753906 53.972656zm231.503906-189.230468c-4.671875-3.921875-10.796875-5.5625-16.808593-4.503906l-62.578126 11.035156c-23.347656 4.117187-40.292968 24.3125-40.292968 48.015625v138.789062c-4.652344.136719-9.386719.625-14.144532 1.464844-19.273437 3.398437-37.421874 12.175781-51.105468 24.71875-14.214844 13.027344-22.042969 28.664063-22.042969 44.03125 0 12.667969 5.5 24.265625 15.492187 32.648437 10.9375 9.175782 26.160157 14.019532 43.234376 14.019532 5.511718 0 11.214843-.503906 17.027343-1.53125 17.539063-3.09375 34.464844-10.804688 47.664063-21.722656 3.191406-2.636719 3.636718-7.367188 1-10.558594-2.640625-3.191406-7.371094-3.636719-10.5625-1-11.226563 9.289062-25.683594 15.859375-40.707032 18.507812-19.164062 3.378906-37.117187-.0625-48.015624-9.207031-6.628907-5.5625-10.132813-12.878906-10.132813-21.15625 0-23.453125 27.820313-48.171875 60.753906-53.976563 6.347657-1.121093 12.605469-1.507812 18.597657-1.152343 2.0625.125 4.082031-.609375 5.585937-2.027344s2.359375-3.390625 2.359375-5.457031v-100.28125l31.605469-5.574219v144.855469c0 3.6875-.683594 7.492187-2.035157 11.308594-1.382812 3.90625.660157 8.191406 4.5625 9.574218.828126.292969 1.675782.433594 2.503907.433594 3.089843 0 5.980469-1.921875 7.070312-5 1.921875-5.425781 2.898438-10.917969 2.898438-16.316406v-147.5l24.867187-4.386719c23.5-4.144531 40.558594-24.472656 40.558594-48.335937v-23.941407c0-6.101562-2.679688-11.851562-7.355469-15.773437zm-7.644531 39.714844c0 16.570312-11.84375 30.6875-28.164062 33.5625l-68.871094 12.144531v-30.875c0-16.414063 11.734375-30.394531 27.898437-33.246094l62.578125-11.035156c2.234375-.394531 3.816406.597656 4.5625 1.226562.746094.625 1.996094 2.011719 1.996094 4.277344zm0 0" fill="#FFFFFF"/></svg>
