<?xml version="1.0" encoding="iso-8859-1"?>
<!-- Generator: Adobe Illustrator 19.0.0, SVG Export Plug-In . SVG Version: 6.00 Build 0)  -->
<svg version="1.1" id="Layer_1" xmlns="http://www.w3.org/2000/svg" xmlns:xlink="http://www.w3.org/1999/xlink" x="0px" y="0px"
	 viewBox="0 0 512 512" style="enable-background:new 0 0 512 512;" xml:space="preserve">
<g>
	<g>
		<path d="M509.608,451.836L357.166,299.394l1.926-1.926c3.191-3.191,3.191-8.364,0-11.554c-3.192-3.191-8.364-3.191-11.555,0
			l-7.703,7.703c-0.001,0.001-17.332,17.332-17.332,17.332l-19.373-19.373c28.231-30.987,45.467-72.156,45.467-117.277
			C348.596,78.19,270.407,0,174.298,0S0,78.19,0,174.298s78.189,174.298,174.298,174.298c45.121,0,86.292-17.236,117.276-45.467
			l19.373,19.373l-25.035,25.035c-3.191,3.191-3.191,8.364,0,11.554c1.596,1.595,3.688,2.393,5.778,2.393
			c2.091,0,4.182-0.797,5.778-2.393l1.926-1.926l152.442,152.442c1.533,1.533,3.61,2.393,5.778,2.393
			c2.168,0,4.244-0.861,5.778-2.393l46.217-46.217C512.797,460.199,512.797,455.025,509.608,451.836z M286.342,285.525
			c-0.145,0.125-0.291,0.249-0.429,0.388s-0.263,0.284-0.389,0.43c-28.568,28.362-67.885,45.912-111.226,45.912
			c-87.098,0-157.957-70.86-157.957-157.957S87.2,16.341,174.298,16.341S332.255,87.2,332.255,174.298
			C332.255,217.639,314.705,256.957,286.342,285.525z M457.613,492.276L310.948,345.611l34.662-34.662l146.665,146.664
			L457.613,492.276z"/>
	</g>
</g>
<g>
	<g>
		<path d="M174.298,76.255c-54.061,0-98.043,43.982-98.043,98.043c0,4.512,3.657,8.17,8.17,8.17s8.17-3.658,8.17-8.17
			c0-45.051,36.652-81.702,81.702-81.702c4.513,0,8.17-3.658,8.17-8.17S178.811,76.255,174.298,76.255z"/>
	</g>
</g>
<g>
	<g>
		<path d="M285.899,87.209c-2.781-3.556-7.917-4.182-11.469-1.403c-3.555,2.78-4.183,7.914-1.403,11.469
			c17.368,22.21,26.548,48.844,26.548,77.023c0,69.078-56.199,125.277-125.277,125.277S49.021,243.376,49.021,174.298
			S105.22,49.021,174.298,49.021c28.18,0,54.813,9.18,77.022,26.548c3.555,2.78,8.69,2.153,11.469-1.403
			c2.78-3.555,2.151-8.69-1.403-11.469c-25.109-19.637-55.224-30.016-87.088-30.016c-78.089,0-141.617,63.529-141.617,141.617
			s63.528,141.617,141.617,141.617s141.617-63.529,141.617-141.617C315.915,142.434,305.535,112.32,285.899,87.209z"/>
	</g>
</g>
<g>
</g>
<g>
</g>
<g>
</g>
<g>
</g>
<g>
</g>
<g>
</g>
<g>
</g>
<g>
</g>
<g>
</g>
<g>
</g>
<g>
</g>
<g>
</g>
<g>
</g>
<g>
</g>
<g>
</g>
</svg>
